<svg preserveAspectRatio="none" overflow="visible" style="display: block;" width="40" height="40" viewBox="0 0 40 40" fill="none" xmlns="http://www.w3.org/2000/svg">
<g id="hugeicons:legal-document-02" clip-path="url(#clip0_0_7)">
<g id="Ellipse 10070" filter="url(#filter0_f_0_7)">
<circle cx="20.5" cy="20.5" r="15.5" fill="#4084C1" fill-opacity="0.5"/>
</g>
<g id="tabler:message">
<path id="Vector" d="M13.3333 15H26.6667M13.3333 21.6667H23.3333M30 6.66671C31.3261 6.66671 32.5979 7.19349 33.5355 8.13117C34.4732 9.06886 35 10.3406 35 11.6667V25C35 26.3261 34.4732 27.5979 33.5355 28.5356C32.5979 29.4733 31.3261 30 30 30H21.6667L13.3333 35V30H10C8.67392 30 7.40215 29.4733 6.46447 28.5356C5.52678 27.5979 5 26.3261 5 25V11.6667C5 10.3406 5.52678 9.06886 6.46447 8.13117C7.40215 7.19349 8.67392 6.66671 10 6.66671H30Z" stroke="#51A6F3" stroke-width="2.33" stroke-linecap="round" stroke-linejoin="round"/>
</g>
</g>
<defs>
<filter id="filter0_f_0_7" x="-2.4" y="-2.4" width="45.8" height="45.8" filterUnits="userSpaceOnUse" color-interpolation-filters="sRGB">
<feFlood flood-opacity="0" result="BackgroundImageFix"/>
<feBlend mode="normal" in="SourceGraphic" in2="BackgroundImageFix" result="shape"/>
<feGaussianBlur stdDeviation="3.7" result="effect1_foregroundBlur_0_7"/>
</filter>
<clipPath id="clip0_0_7">
<rect width="40" height="40" fill="white"/>
</clipPath>
</defs>
</svg>
