<svg id="Layer_1" data-name="Layer 1" xmlns="http://www.w3.org/2000/svg" viewBox="0 0 263.94 293.01"><defs><style>.cls-1{fill:#e8e7e8;}.cls-2{fill:#112431;}.cls-3{fill:#4084c1;}.cls-4{fill:#2e5a98;}</style></defs><title>Aegis Ascent</title><rect class="cls-1" width="263.94" height="293.01"/><path class="cls-2" d="M41.81,198,132.46,51.23l89.56,147c36.2-62.12,34.06-130.29,34.06-154.94C242,43.27,184.3,44.94,132,11.35,79.64,44.94,22,43.27,7.86,43.27,7.86,67.89,5.73,135.94,41.81,198Z"/><path class="cls-3" d="M51.7,213.46a205.21,205.21,0,0,0,36,39.16,221.13,221.13,0,0,0,25.64,18.57h0q3.92,2.43,8,4.76,5.14,2.94,10.63,5.71c36.26-18.31,61.94-42.23,80.11-68l-31.63-51.92-27.31-44.82-40.08,64.37L93.63,145.56Z"/><path class="cls-4" d="M87.67,252.62a221.13,221.13,0,0,0,25.64,18.57h0q3.92,2.43,8,4.76l20.56-33.72L160,202.6l-2.2-3.92-17.45-31.2Z"/><path class="cls-2" d="M113.32,271.19q3.92,2.43,8,4.76,5.14,2.94,10.63,5.71c36.26-18.31,61.94-42.23,80.11-68l-31.63-51.92L157.8,198.68Z"/></svg>