<svg id="Layer_1" data-name="Layer 1" xmlns="http://www.w3.org/2000/svg" viewBox="0 0 841.85 293.01"><defs><style>.cls-1{fill:#112431;}.cls-2{fill:#e8e7e8;}.cls-3{fill:#4084c1;}.cls-4{fill:#2e5a98;}</style></defs><rect class="cls-1" width="841.85" height="293.01"/><path class="cls-2" d="M340,51.89a15.74,15.74,0,0,1,8.15,2q3.3,2,6.49,7.7l42.15,76.53a2.61,2.61,0,0,1,.31,2.1c-.21.55-.82.83-1.84.83H379.09a2.91,2.91,0,0,1-2.93-1.66l-9-16.42H307.28l-8.79,16.42a3.06,3.06,0,0,1-2.93,1.66H279c-1.1,0-1.76-.28-2-.83a2.59,2.59,0,0,1,.32-2.1l41.76-76.53q3.18-5.72,6.24-7.7a12.87,12.87,0,0,1,7.13-2Zm-24.7,56.28h43.8L338.85,70.86a1.56,1.56,0,0,0-1.4-.89h-.76a1.56,1.56,0,0,0-1.4.89Z"/><path class="cls-2" d="M463,71.11a44.7,44.7,0,0,1,10.75,1.09,14.25,14.25,0,0,1,6.75,3.56,13.82,13.82,0,0,1,3.51,6.5A40.59,40.59,0,0,1,485,92v12.09q0,4.08-1.78,5.67t-5.47,1.59h-64.3v3.06q0,6,2.86,8.65t11.14,2.68h53.1a2,2,0,0,1,2.29,2.29v10.69a2,2,0,0,1-2.29,2.3H425.69a63,63,0,0,1-14.45-1.4,21.33,21.33,0,0,1-9.3-4.52,17.5,17.5,0,0,1-5-8,40.1,40.1,0,0,1-1.52-11.77V97a40.22,40.22,0,0,1,1.52-11.78,17.52,17.52,0,0,1,5-8,21.83,21.83,0,0,1,9.3-4.58,59.89,59.89,0,0,1,14.45-1.47ZM413.47,100H465a1.92,1.92,0,0,0,2.17-2.17V92.51c0-2.63-.56-4.5-1.66-5.61s-3.14-1.65-6.11-1.65h-32q-8.28,0-11.14,2.61t-2.86,8.72Z"/><path class="cls-2" d="M558.36,71.11a59.89,59.89,0,0,1,14.45,1.47,22.75,22.75,0,0,1,9.36,4.52,16.39,16.39,0,0,1,5,8,41.7,41.7,0,0,1,1.46,11.77v46.35a42.3,42.3,0,0,1-1.46,11.91,16.81,16.81,0,0,1-5,8,22.32,22.32,0,0,1-9.36,4.58,59.89,59.89,0,0,1-14.45,1.47h-60a2,2,0,0,1-2.29-2.3V156.17a2,2,0,0,1,2.29-2.29h58.19a28.13,28.13,0,0,0,6.87-.7,9.19,9.19,0,0,0,4.27-2.3,8.8,8.8,0,0,0,2.23-4.33,30.93,30.93,0,0,0,.63-6.81v-3.31H522.71A60.46,60.46,0,0,1,508.26,135a21.67,21.67,0,0,1-9.3-4.59,17.41,17.41,0,0,1-5-8,40.61,40.61,0,0,1-1.52-11.9V97.09a40.72,40.72,0,0,1,1.52-11.91,17.52,17.52,0,0,1,5-8,21.77,21.77,0,0,1,9.3-4.58,59.89,59.89,0,0,1,14.45-1.47Zm-47.75,39.22a20.22,20.22,0,0,0,.64,5.54,7.74,7.74,0,0,0,2.23,3.69,9.28,9.28,0,0,0,4.26,2.1,29.52,29.52,0,0,0,6.75.64h46.09V98.49q0-6.75-2.86-9.55t-11.14-2.8H524.49a29.52,29.52,0,0,0-6.75.64,9.28,9.28,0,0,0-4.26,2.1,7.74,7.74,0,0,0-2.23,3.75,20.46,20.46,0,0,0-.64,5.48Z"/><path class="cls-2" d="M614.76,45.27a2.48,2.48,0,0,1,2.81,2.8V60.16c0,2-.94,2.93-2.81,2.93H602.29a2.58,2.58,0,0,1-2.93-2.93V48.07c0-1.87,1-2.8,2.93-2.8Zm0,25.84c1.87,0,2.81,1,2.81,2.93v64.17a2.49,2.49,0,0,1-2.81,2.81H602.29a2.48,2.48,0,0,1-2.8-2.81V74c0-2,.93-2.93,2.8-2.93Z"/><path class="cls-2" d="M709.24,71.11a2,2,0,0,1,2.29,2.3V83.59a2,2,0,0,1-2.29,2.29H651.81q-3.94,0-5.47,1.47a5.64,5.64,0,0,0-1.53,4.26v1.91a5.31,5.31,0,0,0,1.53,4Q647.87,99,651.81,99h42.91q10.69,0,15.28,4.45t4.59,12.61v7.13a25.45,25.45,0,0,1-1,7.51,13.05,13.05,0,0,1-3.38,5.61,15.47,15.47,0,0,1-6.17,3.5A31.81,31.81,0,0,1,694.6,141H629.4a2,2,0,0,1-2.29-2.3V128.54a2,2,0,0,1,2.29-2.29h60.36q3.94,0,5.53-1.4c1.06-.94,1.6-2.51,1.6-4.72V116.7a5,5,0,0,0-1.6-4q-1.59-1.4-5.53-1.4H647q-10.69,0-15.28-4.39t-4.59-12.8v-5.6a24,24,0,0,1,1-7.2,12.91,12.91,0,0,1,3.38-5.53,15.29,15.29,0,0,1,6.17-3.51,31.81,31.81,0,0,1,9.42-1.21Z"/><path class="cls-2" d="M334,158.61a15.72,15.72,0,0,1,8.15,2q3.31,2,6.49,7.71l42.15,76.52a2.67,2.67,0,0,1,.32,2.1c-.22.55-.83.83-1.85.83H373.11a2.91,2.91,0,0,1-2.93-1.66l-9-16.42H301.3l-8.79,16.42a3.06,3.06,0,0,1-2.93,1.66H273c-1.1,0-1.76-.28-2-.83a2.63,2.63,0,0,1,.32-2.1l41.76-76.52q3.18-5.73,6.24-7.71a12.89,12.89,0,0,1,7.13-2Zm-24.7,56.28h43.8l-20.25-37.31a1.56,1.56,0,0,0-1.4-.89h-.76a1.56,1.56,0,0,0-1.4.89Z"/><path class="cls-2" d="M476.75,177.84a2,2,0,0,1,2.29,2.29v10.18a2,2,0,0,1-2.29,2.3H419.33c-2.63,0-4.46.48-5.48,1.46a5.64,5.64,0,0,0-1.53,4.27v1.91a5.3,5.3,0,0,0,1.53,4q1.53,1.45,5.48,1.46h42.91q10.69,0,15.28,4.46t4.58,12.6v7.13a25.45,25.45,0,0,1-1,7.51,13,13,0,0,1-3.37,5.61,15.51,15.51,0,0,1-6.18,3.5,31.48,31.48,0,0,1-9.42,1.21H396.92a2,2,0,0,1-2.29-2.29V235.26a2,2,0,0,1,2.29-2.29h60.35q3.94,0,5.54-1.4t1.59-4.71v-3.44a5,5,0,0,0-1.59-3.95q-1.59-1.4-5.54-1.4H414.49q-10.69,0-15.28-4.39t-4.58-12.8v-5.6a23.89,23.89,0,0,1,1-7.19,13,13,0,0,1,3.38-5.54,15.23,15.23,0,0,1,6.17-3.5,31.51,31.51,0,0,1,9.43-1.21Z"/><path class="cls-2" d="M569.19,177.84a2,2,0,0,1,2.29,2.29v10.69a2,2,0,0,1-2.29,2.29h-49.4a27.62,27.62,0,0,0-6.88.71,8.7,8.7,0,0,0-4.2,2.29,9.09,9.09,0,0,0-2.17,4.33,30.24,30.24,0,0,0-.63,6.68v11.33a30.1,30.1,0,0,0,.63,6.75,9.1,9.1,0,0,0,2.17,4.27,8.79,8.79,0,0,0,4.2,2.29,27.67,27.67,0,0,0,6.88.7h49.4a2,2,0,0,1,2.29,2.29v10.7a2,2,0,0,1-2.29,2.29H518a63,63,0,0,1-14.45-1.4,21.23,21.23,0,0,1-9.29-4.52,17.44,17.44,0,0,1-5-8A39.86,39.86,0,0,1,487.7,222V203.68a39.74,39.74,0,0,1,1.53-11.77,17.47,17.47,0,0,1,5-8,21.73,21.73,0,0,1,9.29-4.58A60.46,60.46,0,0,1,518,177.84Z"/><path class="cls-2" d="M643.29,177.84a44.79,44.79,0,0,1,10.76,1.08,14.35,14.35,0,0,1,6.75,3.56,13.81,13.81,0,0,1,3.5,6.5,40,40,0,0,1,1,9.74v12.09q0,4.08-1.79,5.67c-1.18,1.06-3,1.59-5.47,1.59h-64.3v3.06c0,4,1,6.87,2.86,8.65s5.63,2.68,11.15,2.68h53.09a2,2,0,0,1,2.29,2.29v10.7a2,2,0,0,1-2.29,2.29H606a63,63,0,0,1-14.45-1.4,21.23,21.23,0,0,1-9.29-4.52,17.44,17.44,0,0,1-5-8A39.86,39.86,0,0,1,575.68,222V203.68a39.74,39.74,0,0,1,1.53-11.77,17.47,17.47,0,0,1,5-8,21.73,21.73,0,0,1,9.29-4.58A60.46,60.46,0,0,1,606,177.84Zm-49.53,28.9h51.57a1.91,1.91,0,0,0,2.16-2.17v-5.34q0-3.94-1.65-5.61c-1.11-1.1-3.14-1.65-6.12-1.65h-32q-8.28,0-11.15,2.61c-1.9,1.74-2.86,4.65-2.86,8.72Z"/><path class="cls-2" d="M740.31,177.84a60.74,60.74,0,0,1,14.39,1.46,21.85,21.85,0,0,1,9.36,4.58,17.45,17.45,0,0,1,5,8,39.74,39.74,0,0,1,1.53,11.77v41.26a2.48,2.48,0,0,1-2.8,2.8H755.33a2.48,2.48,0,0,1-2.8-2.8V208a37.13,37.13,0,0,0-.51-6.68,8.5,8.5,0,0,0-2-4.33,8.24,8.24,0,0,0-4-2.29,25.56,25.56,0,0,0-6.62-.7H705.55a27,27,0,0,0-6.75.7,9.19,9.19,0,0,0-4.27,2.29,8.71,8.71,0,0,0-2.22,4.33,29.59,29.59,0,0,0-.64,6.68v36.93a2.48,2.48,0,0,1-2.8,2.8H676.39c-1.95,0-2.93-.94-2.93-2.8V203.68A39.74,39.74,0,0,1,675,191.91a17.55,17.55,0,0,1,5-8,21.77,21.77,0,0,1,9.3-4.58,60.46,60.46,0,0,1,14.45-1.46Z"/><path class="cls-2" d="M789.84,177.84V161a2.47,2.47,0,0,1,2.8-2.8h12.61a2.48,2.48,0,0,1,2.8,2.8v16.81h22.28a2,2,0,0,1,2.29,2.29v10.44a2,2,0,0,1-2.29,2.29H808.05V222.4c0,3.57.71,6.17,2.16,7.83s4.28,2.48,8.53,2.48h12.35a2,2,0,0,1,2.29,2.3v10.44a2,2,0,0,1-2.29,2.29h-15.4a47.57,47.57,0,0,1-12.61-1.4,17.55,17.55,0,0,1-8-4.46A16.43,16.43,0,0,1,791,234a50.58,50.58,0,0,1-1.15-11.59V192.86h-12.1a2,2,0,0,1-2.29-2.29V180.13a2,2,0,0,1,2.29-2.29Z"/><path class="cls-2" d="M42.44,198,133.09,51.23l89.56,147c36.2-62.12,34.06-130.29,34.06-154.94-14.1,0-71.78,1.67-124.11-31.92C80.27,44.94,22.59,43.27,8.49,43.27,8.49,67.89,6.36,135.94,42.44,198Z"/><path class="cls-3" d="M52.33,213.46a205.54,205.54,0,0,0,36,39.16,221.13,221.13,0,0,0,25.64,18.57h0q3.92,2.43,8,4.76,5.15,2.94,10.63,5.71c36.26-18.31,61.94-42.23,80.12-68l-31.63-51.92-27.32-44.82L113.7,181.31,94.26,145.56Z"/><path class="cls-4" d="M88.3,252.62a221.13,221.13,0,0,0,25.64,18.57h0q3.92,2.43,8,4.76l20.56-33.72,18.1-39.63-2.19-3.92L141,167.48Z"/><path class="cls-2" d="M114,271.19q3.92,2.43,8,4.76,5.15,2.94,10.63,5.71c36.26-18.31,61.94-42.23,80.12-68l-31.63-51.92-22.65,36.92Z"/></svg>